<mxfile modified="2020-09-24T03:05:18.451Z" host="app.diagrams.net" agent="5.0 (Windows NT 10.0; Win64; x64) AppleWebKit/537.36 (KHTML, like Gecko) Chrome/85.0.4183.102 Safari/537.36 Edg/85.0.564.51" etag="PZhYDqUvZpLev7poIN_g" version="13.7.5" type="github">
  <diagram id="Ht1M8jgEwFfnCIfOTk4-" name="Page-1">
    <mxGraphModel dx="1388" dy="1646" grid="1" gridSize="10" guides="1" tooltips="1" connect="1" arrows="1" fold="1" page="1" pageScale="1" pageWidth="1169" pageHeight="827" math="0" shadow="0">
      <root>
        <mxCell id="0" />
        <mxCell id="1" parent="0" />
        <mxCell id="3GUSIG28P1bqkNb9e1wR-77" style="edgeStyle=orthogonalEdgeStyle;rounded=1;jumpStyle=sharp;orthogonalLoop=1;jettySize=auto;html=1;exitX=0.65;exitY=0.998;exitDx=0;exitDy=0;entryX=0.5;entryY=0;entryDx=0;entryDy=0;endArrow=classic;endFill=1;fontColor=#000000;startArrow=classicThin;startFill=1;strokeColor=#B5739D;exitPerimeter=0;" edge="1" parent="1" source="3GUSIG28P1bqkNb9e1wR-50" target="3GUSIG28P1bqkNb9e1wR-70">
          <mxGeometry relative="1" as="geometry">
            <Array as="points">
              <mxPoint x="945" y="-614" />
              <mxPoint x="1015" y="-614" />
            </Array>
          </mxGeometry>
        </mxCell>
        <mxCell id="3GUSIG28P1bqkNb9e1wR-50" value="" style="rounded=0;whiteSpace=wrap;html=1;fillColor=#ffe6cc;strokeColor=#d79b00;dashed=1;" vertex="1" parent="1">
          <mxGeometry x="660" y="-760" width="440" height="119" as="geometry" />
        </mxCell>
        <mxCell id="3GUSIG28P1bqkNb9e1wR-44" value="" style="rounded=0;whiteSpace=wrap;html=1;fillColor=#ffe6cc;strokeColor=#d79b00;dashed=1;" vertex="1" parent="1">
          <mxGeometry x="20" y="-752.5" width="380" height="119" as="geometry" />
        </mxCell>
        <mxCell id="3GUSIG28P1bqkNb9e1wR-15" value="&lt;p style=&quot;line-height: 10%&quot;&gt;Connext Indra&lt;/p&gt;&lt;p style=&quot;line-height: 10%&quot;&gt;Layer 2 Payments&lt;/p&gt;" style="rounded=0;whiteSpace=wrap;html=1;align=left;horizontal=1;verticalAlign=top;fillColor=#ffe6cc;strokeColor=#d79b00;dashed=1;" vertex="1" parent="1">
          <mxGeometry x="210" y="-554" width="410" height="330" as="geometry" />
        </mxCell>
        <mxCell id="3GUSIG28P1bqkNb9e1wR-33" value="" style="endArrow=none;dashed=1;html=1;dashPattern=1 3;strokeWidth=2;fontColor=#000000;entryX=0.25;entryY=1;entryDx=0;entryDy=0;exitX=0.85;exitY=0.05;exitDx=0;exitDy=0;exitPerimeter=0;" edge="1" parent="1" source="3GUSIG28P1bqkNb9e1wR-5" target="3GUSIG28P1bqkNb9e1wR-30">
          <mxGeometry width="50" height="50" relative="1" as="geometry">
            <mxPoint x="502.5" y="-494" as="sourcePoint" />
            <mxPoint x="530" y="-464" as="targetPoint" />
          </mxGeometry>
        </mxCell>
        <mxCell id="UEzPUAAOIrF-is8g5C7q-175" value="AWS Instance - Payments" style="points=[[0,0],[0.25,0],[0.5,0],[0.75,0],[1,0],[1,0.25],[1,0.5],[1,0.75],[1,1],[0.75,1],[0.5,1],[0.25,1],[0,1],[0,0.75],[0,0.5],[0,0.25]];outlineConnect=0;gradientColor=none;html=1;whiteSpace=wrap;fontSize=12;fontStyle=0;shape=mxgraph.aws4.group;grIcon=mxgraph.aws4.group_aws_cloud_alt;strokeColor=#232F3E;fillColor=none;verticalAlign=top;align=left;spacingLeft=30;fontColor=#232F3E;dashed=0;labelBackgroundColor=#ffffff;" parent="1" vertex="1">
          <mxGeometry x="159" y="-603.5" width="730" height="440" as="geometry" />
        </mxCell>
        <mxCell id="UEzPUAAOIrF-is8g5C7q-195" style="edgeStyle=orthogonalEdgeStyle;rounded=0;orthogonalLoop=1;jettySize=auto;html=1;startArrow=none;startFill=0;endArrow=open;endFill=0;strokeColor=#808080;strokeWidth=2;exitX=0.75;exitY=1;exitDx=0;exitDy=0;entryX=0.5;entryY=0;entryDx=0;entryDy=0;" parent="1" source="3GUSIG28P1bqkNb9e1wR-1" target="3GUSIG28P1bqkNb9e1wR-3" edge="1">
          <mxGeometry relative="1" as="geometry">
            <mxPoint x="264" y="-524.4" as="sourcePoint" />
            <mxPoint x="510" y="-526.5" as="targetPoint" />
          </mxGeometry>
        </mxCell>
        <mxCell id="UEzPUAAOIrF-is8g5C7q-198" style="edgeStyle=orthogonalEdgeStyle;rounded=0;orthogonalLoop=1;jettySize=auto;html=1;startArrow=none;startFill=0;endArrow=open;endFill=0;strokeColor=#808080;strokeWidth=2;exitX=0.457;exitY=0.967;exitDx=0;exitDy=0;entryX=0.5;entryY=0;entryDx=0;entryDy=0;exitPerimeter=0;" parent="1" source="3GUSIG28P1bqkNb9e1wR-4" target="3GUSIG28P1bqkNb9e1wR-1" edge="1">
          <mxGeometry relative="1" as="geometry">
            <Array as="points" />
            <mxPoint x="510" y="-503.5" as="sourcePoint" />
            <mxPoint x="295" y="-314" as="targetPoint" />
          </mxGeometry>
        </mxCell>
        <mxCell id="3GUSIG28P1bqkNb9e1wR-8" style="edgeStyle=orthogonalEdgeStyle;rounded=0;orthogonalLoop=1;jettySize=auto;html=1;exitX=0.5;exitY=1;exitDx=0;exitDy=0;" edge="1" parent="1" source="3GUSIG28P1bqkNb9e1wR-1" target="3GUSIG28P1bqkNb9e1wR-5">
          <mxGeometry relative="1" as="geometry" />
        </mxCell>
        <mxCell id="3GUSIG28P1bqkNb9e1wR-1" value="Node" style="shape=ext;double=1;rounded=1;whiteSpace=wrap;html=1;" vertex="1" parent="1">
          <mxGeometry x="225" y="-474" width="220" height="80" as="geometry" />
        </mxCell>
        <mxCell id="3GUSIG28P1bqkNb9e1wR-3" value="PostgreSQL DB" style="shape=datastore;whiteSpace=wrap;html=1;" vertex="1" parent="1">
          <mxGeometry x="355" y="-344" width="90" height="77" as="geometry" />
        </mxCell>
        <mxCell id="3GUSIG28P1bqkNb9e1wR-4" value="NATS Messaging" style="rounded=0;whiteSpace=wrap;html=1;" vertex="1" parent="1">
          <mxGeometry x="310" y="-544" width="230" height="30" as="geometry" />
        </mxCell>
        <mxCell id="3GUSIG28P1bqkNb9e1wR-5" value="Redis" style="shape=datastore;whiteSpace=wrap;html=1;" vertex="1" parent="1">
          <mxGeometry x="225" y="-344" width="60" height="60" as="geometry" />
        </mxCell>
        <mxCell id="3GUSIG28P1bqkNb9e1wR-14" style="edgeStyle=orthogonalEdgeStyle;rounded=0;orthogonalLoop=1;jettySize=auto;html=1;exitX=0;exitY=0.5;exitDx=0;exitDy=0;entryX=0.47;entryY=0;entryDx=0;entryDy=0;entryPerimeter=0;endArrow=classic;endFill=1;" edge="1" parent="1" source="3GUSIG28P1bqkNb9e1wR-11" target="3GUSIG28P1bqkNb9e1wR-4">
          <mxGeometry relative="1" as="geometry" />
        </mxCell>
        <mxCell id="3GUSIG28P1bqkNb9e1wR-11" value="Apache httpd routing&lt;br&gt;*.gazecoin.xyz" style="rounded=0;whiteSpace=wrap;html=1;" vertex="1" parent="1">
          <mxGeometry x="430" y="-594" width="430" height="30" as="geometry" />
        </mxCell>
        <mxCell id="3GUSIG28P1bqkNb9e1wR-16" value="Ethereum Layer 1 Node (geth)" style="shape=ext;double=1;rounded=0;whiteSpace=wrap;html=1;" vertex="1" parent="1">
          <mxGeometry x="740" y="-524" width="120" height="54" as="geometry" />
        </mxCell>
        <mxCell id="3GUSIG28P1bqkNb9e1wR-18" value="Ethereum" style="outlineConnect=0;fontColor=#232F3E;gradientColor=#F78E04;gradientDirection=north;fillColor=#D05C17;strokeColor=#ffffff;dashed=0;verticalLabelPosition=bottom;verticalAlign=top;align=center;html=1;fontSize=12;fontStyle=0;aspect=fixed;shape=mxgraph.aws4.resourceIcon;resIcon=mxgraph.aws4.blockchain;" vertex="1" parent="1">
          <mxGeometry x="920" y="-324" width="170.5" height="170.5" as="geometry" />
        </mxCell>
        <mxCell id="3GUSIG28P1bqkNb9e1wR-19" value="" style="endArrow=classic;startArrow=classic;html=1;fontColor=#000000;exitX=1;exitY=0.5;exitDx=0;exitDy=0;" edge="1" parent="1" source="3GUSIG28P1bqkNb9e1wR-16" target="3GUSIG28P1bqkNb9e1wR-18">
          <mxGeometry width="50" height="50" relative="1" as="geometry">
            <mxPoint x="500" y="-394" as="sourcePoint" />
            <mxPoint x="550" y="-444" as="targetPoint" />
            <Array as="points">
              <mxPoint x="910" y="-497" />
              <mxPoint x="910" y="-243.5" />
            </Array>
          </mxGeometry>
        </mxCell>
        <mxCell id="3GUSIG28P1bqkNb9e1wR-20" value="card.gazecoin.xyz node.js server" style="shape=ext;double=1;rounded=0;whiteSpace=wrap;html=1;fontColor=#000000;" vertex="1" parent="1">
          <mxGeometry x="740" y="-430" width="120" height="96" as="geometry" />
        </mxCell>
        <mxCell id="3GUSIG28P1bqkNb9e1wR-21" value="" style="endArrow=classic;startArrow=classic;html=1;fontColor=#000000;entryX=0.5;entryY=1;entryDx=0;entryDy=0;exitX=0;exitY=0.5;exitDx=0;exitDy=0;edgeStyle=orthogonalEdgeStyle;rounded=0;" edge="1" parent="1" source="3GUSIG28P1bqkNb9e1wR-20" target="3GUSIG28P1bqkNb9e1wR-11">
          <mxGeometry width="50" height="50" relative="1" as="geometry">
            <mxPoint x="500" y="-394" as="sourcePoint" />
            <mxPoint x="550" y="-444" as="targetPoint" />
          </mxGeometry>
        </mxCell>
        <mxCell id="3GUSIG28P1bqkNb9e1wR-24" value="" style="endArrow=classic;startArrow=classic;html=1;fontColor=#000000;entryX=0.863;entryY=1.017;entryDx=0;entryDy=0;entryPerimeter=0;exitX=0.5;exitY=0;exitDx=0;exitDy=0;" edge="1" parent="1" source="3GUSIG28P1bqkNb9e1wR-16" target="3GUSIG28P1bqkNb9e1wR-11">
          <mxGeometry width="50" height="50" relative="1" as="geometry">
            <mxPoint x="500" y="-394" as="sourcePoint" />
            <mxPoint x="550" y="-444" as="targetPoint" />
          </mxGeometry>
        </mxCell>
        <mxCell id="3GUSIG28P1bqkNb9e1wR-25" value="Auth node.js server" style="shape=ext;double=1;rounded=0;whiteSpace=wrap;html=1;fontColor=#000000;" vertex="1" parent="1">
          <mxGeometry x="740" y="-324" width="120" height="30" as="geometry" />
        </mxCell>
        <mxCell id="3GUSIG28P1bqkNb9e1wR-26" value="Adbot payment proxy&lt;br&gt;node.js server" style="shape=ext;double=1;rounded=0;whiteSpace=wrap;html=1;fontColor=#000000;" vertex="1" parent="1">
          <mxGeometry x="740" y="-284" width="120" height="50" as="geometry" />
        </mxCell>
        <mxCell id="3GUSIG28P1bqkNb9e1wR-27" value="" style="endArrow=classic;startArrow=classic;html=1;fontColor=#000000;exitX=0;exitY=0.5;exitDx=0;exitDy=0;rounded=0;entryX=0.5;entryY=1;entryDx=0;entryDy=0;" edge="1" parent="1" source="3GUSIG28P1bqkNb9e1wR-25" target="3GUSIG28P1bqkNb9e1wR-11">
          <mxGeometry width="50" height="50" relative="1" as="geometry">
            <mxPoint x="500" y="-414" as="sourcePoint" />
            <mxPoint x="720" y="-564" as="targetPoint" />
            <Array as="points">
              <mxPoint x="645" y="-308.5" />
            </Array>
          </mxGeometry>
        </mxCell>
        <mxCell id="3GUSIG28P1bqkNb9e1wR-29" value="" style="endArrow=classic;startArrow=classic;html=1;fontColor=#000000;exitX=0;exitY=0.5;exitDx=0;exitDy=0;entryX=0.5;entryY=1;entryDx=0;entryDy=0;" edge="1" parent="1" source="3GUSIG28P1bqkNb9e1wR-26" target="3GUSIG28P1bqkNb9e1wR-11">
          <mxGeometry width="50" height="50" relative="1" as="geometry">
            <mxPoint x="500" y="-414" as="sourcePoint" />
            <mxPoint x="720" y="-564" as="targetPoint" />
            <Array as="points">
              <mxPoint x="645" y="-258.5" />
            </Array>
          </mxGeometry>
        </mxCell>
        <mxCell id="3GUSIG28P1bqkNb9e1wR-30" value="NGINX routing" style="rounded=0;whiteSpace=wrap;html=1;" vertex="1" parent="1">
          <mxGeometry x="480" y="-484" width="120" height="20" as="geometry" />
        </mxCell>
        <mxCell id="3GUSIG28P1bqkNb9e1wR-31" value="" style="endArrow=none;dashed=1;html=1;dashPattern=1 3;strokeWidth=2;fontColor=#000000;entryX=0.25;entryY=0;entryDx=0;entryDy=0;exitX=0.75;exitY=1;exitDx=0;exitDy=0;" edge="1" parent="1" source="3GUSIG28P1bqkNb9e1wR-4" target="3GUSIG28P1bqkNb9e1wR-30">
          <mxGeometry width="50" height="50" relative="1" as="geometry">
            <mxPoint x="500" y="-414" as="sourcePoint" />
            <mxPoint x="550" y="-464" as="targetPoint" />
          </mxGeometry>
        </mxCell>
        <mxCell id="3GUSIG28P1bqkNb9e1wR-32" value="" style="endArrow=none;dashed=1;html=1;dashPattern=1 3;strokeWidth=2;fontColor=#000000;entryX=-0.058;entryY=0.5;entryDx=0;entryDy=0;exitX=1;exitY=0.113;exitDx=0;exitDy=0;entryPerimeter=0;exitPerimeter=0;" edge="1" parent="1" source="3GUSIG28P1bqkNb9e1wR-1" target="3GUSIG28P1bqkNb9e1wR-30">
          <mxGeometry width="50" height="50" relative="1" as="geometry">
            <mxPoint x="492.5" y="-504" as="sourcePoint" />
            <mxPoint x="520" y="-474" as="targetPoint" />
          </mxGeometry>
        </mxCell>
        <mxCell id="3GUSIG28P1bqkNb9e1wR-34" value="" style="endArrow=none;dashed=1;html=1;dashPattern=1 3;strokeWidth=2;fontColor=#000000;entryX=0.5;entryY=1;entryDx=0;entryDy=0;exitX=0.85;exitY=0.05;exitDx=0;exitDy=0;exitPerimeter=0;" edge="1" parent="1" source="3GUSIG28P1bqkNb9e1wR-3" target="3GUSIG28P1bqkNb9e1wR-30">
          <mxGeometry width="50" height="50" relative="1" as="geometry">
            <mxPoint x="512.5" y="-484" as="sourcePoint" />
            <mxPoint x="540" y="-454" as="targetPoint" />
          </mxGeometry>
        </mxCell>
        <mxCell id="3GUSIG28P1bqkNb9e1wR-35" value="" style="endArrow=classic;startArrow=classic;html=1;fontColor=#000000;exitX=1;exitY=0.5;exitDx=0;exitDy=0;entryX=0;entryY=0.5;entryDx=0;entryDy=0;" edge="1" parent="1" source="3GUSIG28P1bqkNb9e1wR-1" target="3GUSIG28P1bqkNb9e1wR-16">
          <mxGeometry width="50" height="50" relative="1" as="geometry">
            <mxPoint x="500" y="-414" as="sourcePoint" />
            <mxPoint x="550" y="-464" as="targetPoint" />
            <Array as="points">
              <mxPoint x="630" y="-433.5" />
              <mxPoint x="630" y="-497" />
            </Array>
          </mxGeometry>
        </mxCell>
        <mxCell id="3GUSIG28P1bqkNb9e1wR-38" value="" style="outlineConnect=0;fontColor=#232F3E;gradientColor=none;fillColor=#232F3E;strokeColor=none;dashed=0;verticalLabelPosition=bottom;verticalAlign=top;align=center;html=1;fontSize=12;fontStyle=0;aspect=fixed;pointerEvents=1;shape=mxgraph.aws4.client;" vertex="1" parent="1">
          <mxGeometry x="147" y="-738.5" width="78" height="76" as="geometry" />
        </mxCell>
        <mxCell id="3GUSIG28P1bqkNb9e1wR-39" value="Unity user" style="outlineConnect=0;fontColor=#232F3E;gradientColor=none;fillColor=#232F3E;strokeColor=none;dashed=0;verticalLabelPosition=bottom;verticalAlign=top;align=center;html=1;fontSize=12;fontStyle=0;aspect=fixed;pointerEvents=1;shape=mxgraph.aws4.user;" vertex="1" parent="1">
          <mxGeometry x="1002" y="-741.5" width="78" height="78" as="geometry" />
        </mxCell>
        <mxCell id="3GUSIG28P1bqkNb9e1wR-40" value="Web user" style="outlineConnect=0;fontColor=#232F3E;gradientColor=none;fillColor=#232F3E;strokeColor=none;dashed=0;verticalLabelPosition=bottom;verticalAlign=top;align=center;html=1;fontSize=12;fontStyle=0;aspect=fixed;pointerEvents=1;shape=mxgraph.aws4.user;" vertex="1" parent="1">
          <mxGeometry x="48" y="-740.5" width="78" height="78" as="geometry" />
        </mxCell>
        <mxCell id="3GUSIG28P1bqkNb9e1wR-41" value="" style="endArrow=none;dashed=1;html=1;dashPattern=1 3;strokeWidth=2;fontColor=#000000;entryX=0;entryY=0.381;entryDx=0;entryDy=0;entryPerimeter=0;" edge="1" parent="1" source="3GUSIG28P1bqkNb9e1wR-38" target="3GUSIG28P1bqkNb9e1wR-20">
          <mxGeometry width="50" height="50" relative="1" as="geometry">
            <mxPoint x="500" y="-613.5" as="sourcePoint" />
            <mxPoint x="550" y="-663.5" as="targetPoint" />
            <Array as="points">
              <mxPoint x="480" y="-699.5" />
            </Array>
          </mxGeometry>
        </mxCell>
        <mxCell id="3GUSIG28P1bqkNb9e1wR-42" value="Site content" style="edgeLabel;html=1;align=center;verticalAlign=middle;resizable=0;points=[];fontColor=#000000;" vertex="1" connectable="0" parent="3GUSIG28P1bqkNb9e1wR-41">
          <mxGeometry x="0.4368" relative="1" as="geometry">
            <mxPoint x="-175.94" y="-172.28" as="offset" />
          </mxGeometry>
        </mxCell>
        <mxCell id="3GUSIG28P1bqkNb9e1wR-43" value="Connext Client" style="rounded=0;whiteSpace=wrap;html=1;fontColor=#000000;" vertex="1" parent="1">
          <mxGeometry x="250" y="-692.5" width="120" height="30" as="geometry" />
        </mxCell>
        <mxCell id="3GUSIG28P1bqkNb9e1wR-45" value="" style="endArrow=classic;startArrow=classic;html=1;fontColor=#000000;exitX=1;exitY=0.75;exitDx=0;exitDy=0;fillColor=#e1d5e7;strokeColor=#00CC00;" edge="1" parent="1" source="3GUSIG28P1bqkNb9e1wR-43">
          <mxGeometry width="50" height="50" relative="1" as="geometry">
            <mxPoint x="500" y="-403.5" as="sourcePoint" />
            <mxPoint x="420" y="-471.5" as="targetPoint" />
            <Array as="points">
              <mxPoint x="440" y="-669.5" />
              <mxPoint x="440" y="-523.5" />
              <mxPoint x="420" y="-523.5" />
              <mxPoint x="420" y="-493.5" />
              <mxPoint x="420" y="-471.5" />
            </Array>
          </mxGeometry>
        </mxCell>
        <mxCell id="3GUSIG28P1bqkNb9e1wR-46" value="L2 requests:&lt;br&gt;- create channel&lt;br&gt;&lt;div style=&quot;text-align: left&quot;&gt;- send payment&lt;/div&gt;&lt;div style=&quot;text-align: left&quot;&gt;- add collateral&lt;/div&gt;" style="edgeLabel;html=1;align=center;verticalAlign=middle;resizable=0;points=[];fontColor=#000000;" vertex="1" connectable="0" parent="3GUSIG28P1bqkNb9e1wR-45">
          <mxGeometry x="-0.1086" y="1" relative="1" as="geometry">
            <mxPoint x="4" y="-22" as="offset" />
          </mxGeometry>
        </mxCell>
        <mxCell id="3GUSIG28P1bqkNb9e1wR-47" value="web3.js/ethers.js" style="rounded=0;whiteSpace=wrap;html=1;fontColor=#000000;" vertex="1" parent="1">
          <mxGeometry x="250" y="-740.5" width="120" height="30" as="geometry" />
        </mxCell>
        <mxCell id="3GUSIG28P1bqkNb9e1wR-48" value="" style="endArrow=classic;startArrow=classic;html=1;fontColor=#000000;exitX=1;exitY=0.5;exitDx=0;exitDy=0;fillColor=#e1d5e7;strokeColor=#00CC00;entryX=0.25;entryY=0;entryDx=0;entryDy=0;" edge="1" parent="1" source="3GUSIG28P1bqkNb9e1wR-47" target="3GUSIG28P1bqkNb9e1wR-16">
          <mxGeometry width="50" height="50" relative="1" as="geometry">
            <mxPoint x="380" y="-660" as="sourcePoint" />
            <mxPoint x="800" y="-723.5" as="targetPoint" />
            <Array as="points">
              <mxPoint x="570" y="-723" />
              <mxPoint x="570" y="-623" />
              <mxPoint x="770" y="-623.5" />
            </Array>
          </mxGeometry>
        </mxCell>
        <mxCell id="3GUSIG28P1bqkNb9e1wR-49" value="L1 requests:&lt;br&gt;&lt;div&gt;- get balance&lt;/div&gt;&lt;div&gt;- deposit to L2&lt;/div&gt;&lt;div&gt;- withdraw from L2&lt;/div&gt;" style="edgeLabel;html=1;align=left;verticalAlign=middle;resizable=0;points=[];fontColor=#000000;" vertex="1" connectable="0" parent="3GUSIG28P1bqkNb9e1wR-48">
          <mxGeometry x="-0.1086" y="1" relative="1" as="geometry">
            <mxPoint x="-41" y="-60.53999999999999" as="offset" />
          </mxGeometry>
        </mxCell>
        <mxCell id="3GUSIG28P1bqkNb9e1wR-51" value="" style="outlineConnect=0;fontColor=#232F3E;gradientColor=#F34482;gradientDirection=north;fillColor=#BC1356;strokeColor=#ffffff;dashed=0;verticalLabelPosition=bottom;verticalAlign=top;align=center;html=1;fontSize=12;fontStyle=0;aspect=fixed;shape=mxgraph.aws4.resourceIcon;resIcon=mxgraph.aws4.ar_vr;" vertex="1" parent="1">
          <mxGeometry x="954" y="-740.5" width="48" height="48" as="geometry" />
        </mxCell>
        <mxCell id="3GUSIG28P1bqkNb9e1wR-52" value="Connext Client javascript" style="rounded=0;whiteSpace=wrap;html=1;fontColor=#000000;" vertex="1" parent="1">
          <mxGeometry x="670" y="-692.5" width="90" height="30" as="geometry" />
        </mxCell>
        <mxCell id="3GUSIG28P1bqkNb9e1wR-53" value="Nethereum" style="rounded=0;whiteSpace=wrap;html=1;fontColor=#000000;" vertex="1" parent="1">
          <mxGeometry x="670" y="-740.5" width="140" height="30" as="geometry" />
        </mxCell>
        <mxCell id="3GUSIG28P1bqkNb9e1wR-56" value="" style="endArrow=classic;startArrow=classic;html=1;fontColor=#000000;exitX=0;exitY=0.5;exitDx=0;exitDy=0;fillColor=#e1d5e7;entryX=0.375;entryY=-0.006;entryDx=0;entryDy=0;entryPerimeter=0;strokeColor=#B5739D;" edge="1" source="3GUSIG28P1bqkNb9e1wR-53" parent="1" target="3GUSIG28P1bqkNb9e1wR-16">
          <mxGeometry width="50" height="50" relative="1" as="geometry">
            <mxPoint x="638" y="-702.5" as="sourcePoint" />
            <mxPoint x="1028" y="-566.5" as="targetPoint" />
            <Array as="points">
              <mxPoint x="580" y="-725" />
              <mxPoint x="580" y="-633" />
              <mxPoint x="785" y="-633.5" />
            </Array>
          </mxGeometry>
        </mxCell>
        <mxCell id="3GUSIG28P1bqkNb9e1wR-54" value="" style="endArrow=classic;startArrow=classic;html=1;fontColor=#000000;exitX=0;exitY=0.5;exitDx=0;exitDy=0;fillColor=#e1d5e7;strokeColor=#B5739D;" edge="1" source="3GUSIG28P1bqkNb9e1wR-52" parent="1">
          <mxGeometry width="50" height="50" relative="1" as="geometry">
            <mxPoint x="758" y="-446" as="sourcePoint" />
            <mxPoint x="430" y="-473.5" as="targetPoint" />
            <Array as="points">
              <mxPoint x="450" y="-677.5" />
              <mxPoint x="450" y="-523.5" />
              <mxPoint x="430" y="-513.5" />
              <mxPoint x="430" y="-473.5" />
            </Array>
          </mxGeometry>
        </mxCell>
        <mxCell id="3GUSIG28P1bqkNb9e1wR-58" value="js/.net interop" style="rounded=0;whiteSpace=wrap;html=1;fontColor=#000000;" vertex="1" parent="1">
          <mxGeometry x="760" y="-692.5" width="50" height="29" as="geometry" />
        </mxCell>
        <mxCell id="3GUSIG28P1bqkNb9e1wR-59" value="Payments&lt;br&gt;Library (.net)" style="rounded=0;whiteSpace=wrap;html=1;fontColor=#000000;" vertex="1" parent="1">
          <mxGeometry x="820" y="-740.5" width="70" height="77" as="geometry" />
        </mxCell>
        <mxCell id="3GUSIG28P1bqkNb9e1wR-60" value="" style="endArrow=classic;startArrow=classic;html=1;fontColor=#000000;entryX=0;entryY=0.25;entryDx=0;entryDy=0;exitX=1;exitY=0.75;exitDx=0;exitDy=0;strokeColor=#0000FF;" edge="1" parent="1" source="3GUSIG28P1bqkNb9e1wR-1" target="3GUSIG28P1bqkNb9e1wR-26">
          <mxGeometry width="50" height="50" relative="1" as="geometry">
            <mxPoint x="500" y="-443.5" as="sourcePoint" />
            <mxPoint x="550" y="-493.5" as="targetPoint" />
            <Array as="points">
              <mxPoint x="550" y="-413.5" />
              <mxPoint x="550" y="-271.5" />
            </Array>
          </mxGeometry>
        </mxCell>
        <mxCell id="3GUSIG28P1bqkNb9e1wR-61" value="Payment&lt;br&gt;&amp;nbsp;requests" style="edgeLabel;html=1;align=center;verticalAlign=middle;resizable=0;points=[];fontColor=#000000;" vertex="1" connectable="0" parent="3GUSIG28P1bqkNb9e1wR-60">
          <mxGeometry x="0.0298" relative="1" as="geometry">
            <mxPoint y="-30.5" as="offset" />
          </mxGeometry>
        </mxCell>
        <mxCell id="3GUSIG28P1bqkNb9e1wR-62" value="GazeTips&lt;br&gt;bot" style="shape=ext;double=1;rounded=0;whiteSpace=wrap;html=1;fontColor=#000000;" vertex="1" parent="1">
          <mxGeometry x="740" y="-224" width="120" height="40.5" as="geometry" />
        </mxCell>
        <mxCell id="3GUSIG28P1bqkNb9e1wR-63" value="" style="endArrow=classic;startArrow=classic;html=1;fontColor=#000000;entryX=0.5;entryY=1;entryDx=0;entryDy=0;exitX=0;exitY=0.5;exitDx=0;exitDy=0;" edge="1" parent="1" source="3GUSIG28P1bqkNb9e1wR-62" target="3GUSIG28P1bqkNb9e1wR-11">
          <mxGeometry width="50" height="50" relative="1" as="geometry">
            <mxPoint x="500" y="-453.5" as="sourcePoint" />
            <mxPoint x="550" y="-503.5" as="targetPoint" />
            <Array as="points">
              <mxPoint x="645" y="-203.5" />
            </Array>
          </mxGeometry>
        </mxCell>
        <mxCell id="3GUSIG28P1bqkNb9e1wR-64" value="" style="endArrow=classic;startArrow=classic;html=1;fontColor=#000000;entryX=0;entryY=0.25;entryDx=0;entryDy=0;strokeColor=#CC00CC;" edge="1" parent="1" target="3GUSIG28P1bqkNb9e1wR-62">
          <mxGeometry width="50" height="50" relative="1" as="geometry">
            <mxPoint x="445" y="-403.5" as="sourcePoint" />
            <mxPoint x="750" y="-261.5" as="targetPoint" />
            <Array as="points">
              <mxPoint x="560" y="-403.5" />
              <mxPoint x="560" y="-213.5" />
            </Array>
          </mxGeometry>
        </mxCell>
        <mxCell id="3GUSIG28P1bqkNb9e1wR-66" value="" style="shape=image;html=1;verticalAlign=top;verticalLabelPosition=bottom;labelBackgroundColor=#ffffff;imageAspect=0;aspect=fixed;image=https://cdn0.iconfinder.com/data/icons/social-flat-rounded-rects/512/telegram-128.png;fontColor=#000000;" vertex="1" parent="1">
          <mxGeometry x="830" y="-113.5" width="50" height="50" as="geometry" />
        </mxCell>
        <mxCell id="3GUSIG28P1bqkNb9e1wR-67" value="" style="shape=image;html=1;verticalAlign=top;verticalLabelPosition=bottom;labelBackgroundColor=#ffffff;imageAspect=0;aspect=fixed;image=https://cdn0.iconfinder.com/data/icons/free-social-media-set/24/discord-128.png;fontColor=#000000;" vertex="1" parent="1">
          <mxGeometry x="752" y="-113.5" width="59" height="59" as="geometry" />
        </mxCell>
        <mxCell id="3GUSIG28P1bqkNb9e1wR-68" value="" style="endArrow=classic;startArrow=classic;html=1;strokeColor=#CC00CC;fontColor=#000000;exitX=0.367;exitY=0.975;exitDx=0;exitDy=0;exitPerimeter=0;" edge="1" parent="1" source="3GUSIG28P1bqkNb9e1wR-62" target="3GUSIG28P1bqkNb9e1wR-67">
          <mxGeometry width="50" height="50" relative="1" as="geometry">
            <mxPoint x="500" y="-353.5" as="sourcePoint" />
            <mxPoint x="550" y="-403.5" as="targetPoint" />
          </mxGeometry>
        </mxCell>
        <mxCell id="3GUSIG28P1bqkNb9e1wR-69" value="" style="endArrow=classic;startArrow=classic;html=1;strokeColor=#CC00CC;fontColor=#000000;exitX=0.75;exitY=1;exitDx=0;exitDy=0;entryX=0.5;entryY=0;entryDx=0;entryDy=0;" edge="1" parent="1" source="3GUSIG28P1bqkNb9e1wR-62" target="3GUSIG28P1bqkNb9e1wR-66">
          <mxGeometry width="50" height="50" relative="1" as="geometry">
            <mxPoint x="794.04" y="-174.51249999999982" as="sourcePoint" />
            <mxPoint x="792.2454794179828" y="-103.5" as="targetPoint" />
            <Array as="points">
              <mxPoint x="830" y="-133.5" />
              <mxPoint x="855" y="-133.5" />
            </Array>
          </mxGeometry>
        </mxCell>
        <mxCell id="3GUSIG28P1bqkNb9e1wR-70" value="World Assets" style="rounded=0;whiteSpace=wrap;html=1;fillColor=#ffe6cc;strokeColor=#d79b00;align=left;horizontal=1;verticalAlign=top;" vertex="1" parent="1">
          <mxGeometry x="940" y="-583.5" width="150" height="210" as="geometry" />
        </mxCell>
        <mxCell id="3GUSIG28P1bqkNb9e1wR-71" value="" style="shape=datastore;whiteSpace=wrap;html=1;fontColor=#000000;" vertex="1" parent="1">
          <mxGeometry x="985" y="-544" width="60" height="60" as="geometry" />
        </mxCell>
        <mxCell id="3GUSIG28P1bqkNb9e1wR-72" value="ERC721 tokens" style="rounded=0;whiteSpace=wrap;html=1;fontColor=#000000;" vertex="1" parent="1">
          <mxGeometry x="950" y="-313.5" width="120" height="29.5" as="geometry" />
        </mxCell>
        <mxCell id="3GUSIG28P1bqkNb9e1wR-73" value="GazeCoin tokens" style="rounded=0;whiteSpace=wrap;html=1;fontColor=#000000;" vertex="1" parent="1">
          <mxGeometry x="960" y="-183.5" width="120" height="20" as="geometry" />
        </mxCell>
        <mxCell id="3GUSIG28P1bqkNb9e1wR-74" value="ETH accounts" style="rounded=0;whiteSpace=wrap;html=1;fontColor=#000000;" vertex="1" parent="1">
          <mxGeometry x="927" y="-213.5" width="101" height="20.5" as="geometry" />
        </mxCell>
        <mxCell id="3GUSIG28P1bqkNb9e1wR-75" value="Ethereum node" style="rounded=0;whiteSpace=wrap;html=1;fontColor=#000000;" vertex="1" parent="1">
          <mxGeometry x="960" y="-403.5" width="120" height="19.5" as="geometry" />
        </mxCell>
        <mxCell id="3GUSIG28P1bqkNb9e1wR-78" value="" style="endArrow=classic;startArrow=classic;html=1;strokeColor=#CC00CC;fontColor=#000000;entryX=0.5;entryY=1;entryDx=0;entryDy=0;" edge="1" parent="1" target="3GUSIG28P1bqkNb9e1wR-70">
          <mxGeometry width="50" height="50" relative="1" as="geometry">
            <mxPoint x="1015" y="-323.5" as="sourcePoint" />
            <mxPoint x="550" y="-473.5" as="targetPoint" />
            <Array as="points" />
          </mxGeometry>
        </mxCell>
      </root>
    </mxGraphModel>
  </diagram>
</mxfile>
